{
    "asset" : {
        "generator" : "Khronos glTF Blender I/O v1.1.46",
        "version" : "2.0"
    },
    "scene" : 0,
    "scenes" : [
        {
            "name" : "Scene",
            "nodes" : [
                12,
                13,
                14,
                15,
                16,
                17
            ]
        }
    ],
    "nodes" : [
        {
            "name" : "Atmosfera",
            "scale" : [
                1.0235130786895752,
                1.0235130786895752,
                1.0235130786895752
            ]
        },
        {
            "name" : "Atmosfera1",
            "scale" : [
                1.0359359979629517,
                1.0359359979629517,
                1.0359359979629517
            ]
        },
        {
            "name" : "Nubes",
            "translation" : [
                -0.21651335060596466,
                0,
                0
            ]
        },
        {
            "mesh" : 0,
            "name" : "Tierra_Tierra_blin_superficie_0"
        },
        {
            "children" : [
                3
            ],
            "name" : "Tierra"
        },
        {
            "children" : [
                0,
                1,
                2,
                4
            ],
            "name" : "group1",
            "rotation" : [
                -0.004516570828855038,
                0.09286139905452728,
                0.05427509918808937,
                0.9941884279251099
            ]
        },
        {
            "children" : [
                5
            ],
            "name" : "Earth_Grp"
        },
        {
            "children" : [
                6
            ],
            "name" : "RootNode"
        },
        {
            "children" : [
                7
            ],
            "name" : "Node"
        },
        {
            "children" : [
                8
            ],
            "name" : "157f21a0fd4a468082d7f17951348031.fbx",
            "rotation" : [
                0.7071068286895752,
                0,
                0,
                0.7071068286895752
            ]
        },
        {
            "children" : [
                9
            ],
            "name" : "RootNode (model correction matrix)"
        },
        {
            "children" : [
                10
            ],
            "name" : "RootNode (gltf orientation matrix)",
            "rotation" : [
                -0.7071068286895752,
                0,
                0,
                0.7071068286895752
            ]
        },
        {
            "children" : [
                11
            ],
            "name" : "Yup2Zup",
            "rotation" : [
                0.7071067690849304,
                0,
                0,
                0.7071067690849304
            ]
        },
        {
            "mesh" : 1,
            "name" : "Curve",
            "rotation" : [
                -0.12278769165277481,
                -0.6963642835617065,
                -0.6963642239570618,
                0.12278780341148376
            ],
            "scale" : [
                1.305372953414917,
                1.305372953414917,
                1.305372953414917
            ],
            "translation" : [
                1.805555820465088,
                16.203041076660156,
                -12.167458534240723
            ]
        },
        {
            "name" : "Sun",
            "translation" : [
                -20.640830993652344,
                16.169879913330078,
                11.875550270080566
            ]
        },
        {
            "mesh" : 2,
            "name" : "Curve.001",
            "rotation" : [
                -0.12278769165277481,
                -0.6963642835617065,
                -0.6963642239570618,
                0.12278780341148376
            ],
            "scale" : [
                1.305372953414917,
                1.305372953414917,
                1.305372953414917
            ],
            "translation" : [
                -8.120162010192871,
                13.51121997833252,
                -12.855414390563965
            ]
        },
        {
            "mesh" : 3,
            "name" : "Curve.002",
            "rotation" : [
                -0.12278769165277481,
                -0.6963642835617065,
                -0.6963642239570618,
                0.12278780341148376
            ],
            "scale" : [
                1.305372953414917,
                1.305372953414917,
                1.305372953414917
            ],
            "translation" : [
                -9.32093620300293,
                14.073972702026367,
                -11.419137954711914
            ]
        },
        {
            "name" : "Camera",
            "rotation" : [
                0.10354533791542053,
                -0.7869659066200256,
                0.5951533913612366,
                0.1255207359790802
            ],
            "translation" : [
                -24.79572105407715,
                21.258073806762695,
                -71.38018035888672
            ]
        }
    ],
    "materials" : [
        {
            "doubleSided" : true,
            "emissiveFactor" : [
                0,
                0,
                0
            ],
            "name" : "Tierra_blin_superficie",
            "pbrMetallicRoughness" : {
                "baseColorTexture" : {
                    "index" : 0,
                    "texCoord" : 0
                },
                "metallicFactor" : 0,
                "roughnessFactor" : 0.44073933362960815
            }
        },
        {
            "doubleSided" : true,
            "emissiveFactor" : [
                0,
                0,
                0
            ],
            "name" : "Material.001",
            "pbrMetallicRoughness" : {
                "baseColorFactor" : [
                    1,
                    1,
                    1,
                    1
                ],
                "metallicFactor" : 0,
                "roughnessFactor" : 0.2261904776096344
            }
        }
    ],
    "meshes" : [
        {
            "name" : "Tierra_Tierra_blin_superficie_0",
            "primitives" : [
                {
                    "attributes" : {
                        "POSITION" : 0,
                        "NORMAL" : 1,
                        "TEXCOORD_0" : 2
                    },
                    "indices" : 3,
                    "material" : 0
                }
            ]
        },
        {
            "name" : "Curve",
            "primitives" : [
                {
                    "attributes" : {
                        "POSITION" : 4,
                        "NORMAL" : 5
                    },
                    "indices" : 6,
                    "material" : 1
                }
            ]
        },
        {
            "name" : "Curve.001",
            "primitives" : [
                {
                    "attributes" : {
                        "POSITION" : 7,
                        "NORMAL" : 8
                    },
                    "indices" : 6,
                    "material" : 1
                }
            ]
        },
        {
            "name" : "Curve.002",
            "primitives" : [
                {
                    "attributes" : {
                        "POSITION" : 9,
                        "NORMAL" : 10
                    },
                    "indices" : 6,
                    "material" : 1
                }
            ]
        }
    ],
    "textures" : [
        {
            "source" : 0
        }
    ],
    "images" : [
        {
            "bufferView" : 4,
            "mimeType" : "image/jpeg",
            "name" : "Tierra_blin_superficie_baseColor"
        }
    ],
    "accessors" : [
        {
            "bufferView" : 0,
            "componentType" : 5126,
            "count" : 1677,
            "max" : [
                19.465761184692383,
                19.465763092041016,
                19.747467041015625
            ],
            "min" : [
                -19.46576690673828,
                -19.465770721435547,
                -19.747467041015625
            ],
            "type" : "VEC3"
        },
        {
            "bufferView" : 1,
            "componentType" : 5126,
            "count" : 1677,
            "type" : "VEC3"
        },
        {
            "bufferView" : 2,
            "componentType" : 5126,
            "count" : 1677,
            "type" : "VEC2"
        },
        {
            "bufferView" : 3,
            "componentType" : 5123,
            "count" : 9360,
            "type" : "SCALAR"
        },
        {
            "bufferView" : 5,
            "componentType" : 5126,
            "count" : 10302,
            "max" : [
                0.41788461804389954,
                0.06689480692148209,
                0.4163669943809509
            ],
            "min" : [
                -0.4177510738372803,
                -0.0668952465057373,
                -0.4164329171180725
            ],
            "type" : "VEC3"
        },
        {
            "bufferView" : 6,
            "componentType" : 5126,
            "count" : 10302,
            "type" : "VEC3"
        },
        {
            "bufferView" : 7,
            "componentType" : 5123,
            "count" : 53892,
            "type" : "SCALAR"
        },
        {
            "bufferView" : 8,
            "componentType" : 5126,
            "count" : 10302,
            "max" : [
                0.41788461804389954,
                0.06689480692148209,
                0.4163669943809509
            ],
            "min" : [
                -0.4177510738372803,
                -0.0668952465057373,
                -0.4164329171180725
            ],
            "type" : "VEC3"
        },
        {
            "bufferView" : 9,
            "componentType" : 5126,
            "count" : 10302,
            "type" : "VEC3"
        },
        {
            "bufferView" : 10,
            "componentType" : 5126,
            "count" : 10302,
            "max" : [
                0.41788461804389954,
                0.06689480692148209,
                0.4163669943809509
            ],
            "min" : [
                -0.4177510738372803,
                -0.0668952465057373,
                -0.4164329171180725
            ],
            "type" : "VEC3"
        },
        {
            "bufferView" : 11,
            "componentType" : 5126,
            "count" : 10302,
            "type" : "VEC3"
        }
    ],
    "bufferViews" : [
        {
            "buffer" : 0,
            "byteLength" : 20124,
            "byteOffset" : 0
        },
        {
            "buffer" : 0,
            "byteLength" : 20124,
            "byteOffset" : 20124
        },
        {
            "buffer" : 0,
            "byteLength" : 13416,
            "byteOffset" : 40248
        },
        {
            "buffer" : 0,
            "byteLength" : 18720,
            "byteOffset" : 53664
        },
        {
            "buffer" : 0,
            "byteLength" : 2047172,
            "byteOffset" : 72384
        },
        {
            "buffer" : 0,
            "byteLength" : 123624,
            "byteOffset" : 2119556
        },
        {
            "buffer" : 0,
            "byteLength" : 123624,
            "byteOffset" : 2243180
        },
        {
            "buffer" : 0,
            "byteLength" : 107784,
            "byteOffset" : 2366804
        },
        {
            "buffer" : 0,
            "byteLength" : 123624,
            "byteOffset" : 2474588
        },
        {
            "buffer" : 0,
            "byteLength" : 123624,
            "byteOffset" : 2598212
        },
        {
            "buffer" : 0,
            "byteLength" : 123624,
            "byteOffset" : 2721836
        },
        {
            "buffer" : 0,
            "byteLength" : 123624,
            "byteOffset" : 2845460
        }
    ],
    "buffers" : [
        {
            "byteLength" : 2969084,
            "uri" : "data:application/octet-stream;base64,"
        }
    ]
}
